<?xml version="1.0" encoding="utf-8"?>
<!-- Generator: Adobe Illustrator 17.0.0, SVG Export Plug-In . SVG Version: 6.00 Build 0)  -->
<!DOCTYPE svg PUBLIC "-//W3C//DTD SVG 1.1//EN" "http://www.w3.org/Graphics/SVG/1.1/DTD/svg11.dtd">
<svg width="200px" height="50px" viewBox="0 0 1090 124" fill="none" xmlns="http://www.w3.org/2000/svg">
<path d="M91.7271 121C90.4804 116.92 89.0637 112.727 87.4771 108.42C86.0037 104.113 84.5304 99.8067 83.0571 95.5H37.1571C35.6837 99.8067 34.1537 104.113 32.5671 108.42C31.0937 112.727 29.7337 116.92 28.4871 121H0.947067C5.36707 108.307 9.5604 96.5767 13.5271 85.81C17.4937 75.0433 21.3471 64.9 25.0871 55.38C28.9404 45.86 32.6804 36.85 36.3071 28.35C40.0471 19.7366 43.9004 11.35 47.8671 3.18999H73.1971C77.0504 11.35 80.8471 19.7366 84.5871 28.35C88.3271 36.85 92.0671 45.86 95.8071 55.38C99.6604 64.9 103.57 75.0433 107.537 85.81C111.504 96.5767 115.697 108.307 120.117 121H91.7271ZM59.9371 29.88C59.3704 31.58 58.5204 33.9033 57.3871 36.85C56.2537 39.7966 54.9504 43.1966 53.4771 47.05C52.0037 50.9033 50.3604 55.1533 48.5471 59.8C46.8471 64.4467 45.0904 69.32 43.2771 74.42H76.7671C74.9537 69.32 73.1971 64.4467 71.4971 59.8C69.7971 55.1533 68.1537 50.9033 66.5671 47.05C65.0937 43.1966 63.7904 39.7966 62.6571 36.85C61.5237 33.9033 60.6171 31.58 59.9371 29.88Z" fill="white"/>
<path d="M214.077 98.22V121H135.367V3.18999H161.887V98.22H214.077Z" fill="white"/>
<path d="M285.297 23.59C272.944 23.59 263.991 27.0466 258.437 33.96C252.997 40.76 250.277 50.11 250.277 62.01C250.277 67.79 250.957 73.06 252.317 77.82C253.677 82.4666 255.717 86.49 258.437 89.89C261.157 93.29 264.557 95.9533 268.637 97.88C272.717 99.6933 277.477 100.6 282.917 100.6C285.864 100.6 288.357 100.543 290.397 100.43C292.551 100.317 294.421 100.09 296.007 99.75V58.78H322.527V117.09C319.354 118.337 314.254 119.64 307.227 121C300.201 122.473 291.531 123.21 281.217 123.21C272.377 123.21 264.331 121.85 257.077 119.13C249.937 116.41 243.817 112.443 238.717 107.23C233.617 102.017 229.651 95.6133 226.817 88.02C224.097 80.4267 222.737 71.7566 222.737 62.01C222.737 52.15 224.267 43.4233 227.327 35.83C230.387 28.2366 234.581 21.8333 239.907 16.62C245.234 11.2933 251.467 7.26998 258.607 4.54997C265.861 1.82997 273.567 0.469971 281.727 0.469971C287.281 0.469971 292.267 0.866652 296.687 1.65999C301.221 2.33999 305.074 3.18998 308.247 4.20998C311.534 5.11664 314.197 6.07998 316.237 7.09998C318.391 8.11998 319.921 8.91331 320.827 9.47998L313.177 30.73C309.551 28.8033 305.357 27.16 300.597 25.8C295.951 24.3267 290.851 23.59 285.297 23.59Z" fill="white"/>
<path d="M369.473 62.01C369.473 67.79 370.153 73.0033 371.513 77.65C372.986 82.2966 375.026 86.32 377.633 89.72C380.353 93.0067 383.639 95.5566 387.493 97.37C391.346 99.1833 395.766 100.09 400.753 100.09C405.626 100.09 409.989 99.1833 413.843 97.37C417.809 95.5566 421.096 93.0067 423.703 89.72C426.423 86.32 428.463 82.2966 429.823 77.65C431.296 73.0033 432.033 67.79 432.033 62.01C432.033 56.23 431.296 51.0166 429.823 46.37C428.463 41.61 426.423 37.5866 423.703 34.3C421.096 30.9 417.809 28.2933 413.843 26.48C409.989 24.6667 405.626 23.76 400.753 23.76C395.766 23.76 391.346 24.7233 387.493 26.65C383.639 28.4633 380.353 31.07 377.633 34.47C375.026 37.7567 372.986 41.78 371.513 46.54C370.153 51.1866 369.473 56.3433 369.473 62.01ZM459.403 62.01C459.403 72.0966 457.873 80.9933 454.813 88.7C451.866 96.2933 447.786 102.697 442.573 107.91C437.359 113.01 431.126 116.863 423.873 119.47C416.733 122.077 409.026 123.38 400.753 123.38C392.706 123.38 385.113 122.077 377.973 119.47C370.833 116.863 364.599 113.01 359.273 107.91C353.946 102.697 349.753 96.2933 346.693 88.7C343.633 80.9933 342.103 72.0966 342.103 62.01C342.103 51.9233 343.689 43.0833 346.863 35.49C350.036 27.7833 354.286 21.3233 359.613 16.11C365.053 10.8966 371.286 6.98664 378.313 4.37997C385.453 1.77331 392.933 0.469971 400.753 0.469971C408.799 0.469971 416.393 1.77331 423.533 4.37997C430.673 6.98664 436.906 10.8966 442.233 16.11C447.559 21.3233 451.753 27.7833 454.813 35.49C457.873 43.0833 459.403 51.9233 459.403 62.01Z" fill="white"/>
<path d="M560.219 98.22V121H481.509V3.18999H508.029V98.22H560.219Z" fill="white"/>
<path d="M577.3 121V3.18999H656.86V25.46H603.82V48.58H650.91V70.34H603.82V98.73H660.77V121H577.3Z" fill="white"/>
<path d="M737.856 23.59C725.503 23.59 716.549 27.0466 710.996 33.96C705.556 40.76 702.836 50.11 702.836 62.01C702.836 67.79 703.516 73.06 704.876 77.82C706.236 82.4666 708.276 86.49 710.996 89.89C713.716 93.29 717.116 95.9533 721.196 97.88C725.276 99.6933 730.036 100.6 735.476 100.6C738.423 100.6 740.916 100.543 742.956 100.43C745.109 100.317 746.979 100.09 748.566 99.75V58.78H775.086V117.09C771.913 118.337 766.813 119.64 759.786 121C752.759 122.473 744.089 123.21 733.776 123.21C724.936 123.21 716.889 121.85 709.636 119.13C702.496 116.41 696.376 112.443 691.276 107.23C686.176 102.017 682.209 95.6133 679.376 88.02C676.656 80.4267 675.296 71.7566 675.296 62.01C675.296 52.15 676.826 43.4233 679.886 35.83C682.946 28.2366 687.139 21.8333 692.466 16.62C697.793 11.2933 704.026 7.26998 711.166 4.54997C718.419 1.82997 726.126 0.469971 734.286 0.469971C739.839 0.469971 744.826 0.866652 749.246 1.65999C753.779 2.33999 757.633 3.18998 760.806 4.20998C764.093 5.11664 766.756 6.07998 768.796 7.09998C770.949 8.11998 772.479 8.91331 773.386 9.47998L765.736 30.73C762.109 28.8033 757.916 27.16 753.156 25.8C748.509 24.3267 743.409 23.59 737.856 23.59Z" fill="white"/>
<path d="M799.761 3.18999H826.281V121H799.761V3.18999Z" fill="white"/>
<path d="M875.82 62.01C875.82 67.79 876.5 73.0033 877.86 77.65C879.333 82.2966 881.374 86.32 883.98 89.72C886.7 93.0067 889.987 95.5566 893.84 97.37C897.694 99.1833 902.114 100.09 907.1 100.09C911.974 100.09 916.337 99.1833 920.19 97.37C924.157 95.5566 927.443 93.0067 930.05 89.72C932.77 86.32 934.81 82.2966 936.17 77.65C937.644 73.0033 938.38 67.79 938.38 62.01C938.38 56.23 937.644 51.0166 936.17 46.37C934.81 41.61 932.77 37.5866 930.05 34.3C927.443 30.9 924.157 28.2933 920.19 26.48C916.337 24.6667 911.974 23.76 907.1 23.76C902.114 23.76 897.694 24.7233 893.84 26.65C889.987 28.4633 886.7 31.07 883.98 34.47C881.374 37.7567 879.333 41.78 877.86 46.54C876.5 51.1866 875.82 56.3433 875.82 62.01ZM965.75 62.01C965.75 72.0966 964.22 80.9933 961.16 88.7C958.214 96.2933 954.134 102.697 948.92 107.91C943.707 113.01 937.474 116.863 930.22 119.47C923.08 122.077 915.374 123.38 907.1 123.38C899.054 123.38 891.46 122.077 884.32 119.47C877.18 116.863 870.947 113.01 865.62 107.91C860.293 102.697 856.1 96.2933 853.04 88.7C849.98 80.9933 848.45 72.0966 848.45 62.01C848.45 51.9233 850.037 43.0833 853.21 35.49C856.384 27.7833 860.634 21.3233 865.96 16.11C871.4 10.8966 877.634 6.98664 884.66 4.37997C891.8 1.77331 899.28 0.469971 907.1 0.469971C915.147 0.469971 922.74 1.77331 929.88 4.37997C937.02 6.98664 943.254 10.8966 948.58 16.11C953.907 21.3233 958.1 27.7833 961.16 35.49C964.22 43.0833 965.75 51.9233 965.75 62.01Z" fill="white"/>
<path d="M1066.91 121C1059.31 107.513 1051.1 94.1967 1042.26 81.05C1033.42 67.9033 1024.01 55.4933 1014.04 43.82V121H987.857V3.18999H1009.45C1013.19 6.92999 1017.32 11.52 1021.86 16.96C1026.39 22.4 1030.98 28.2367 1035.63 34.47C1040.39 40.59 1045.09 46.9933 1049.74 53.68C1054.38 60.2533 1058.75 66.6 1062.83 72.72V3.18999H1089.18V121H1066.91Z" fill="white"/>
</svg>



